<?xml version="1.0" encoding="utf-8"?>
<!-- Generator: Adobe Illustrator 16.0.0, SVG Export Plug-In . SVG Version: 6.00 Build 0)  -->
<!DOCTYPE svg PUBLIC "-//W3C//DTD SVG 1.1//EN" "http://www.w3.org/Graphics/SVG/1.1/DTD/svg11.dtd">
<svg version="1.1" id="图层_1" xmlns="http://www.w3.org/2000/svg" xmlns:xlink="http://www.w3.org/1999/xlink" x="0px" y="0px"
	 width="250px" height="40px" viewBox="0 0 250 40" enable-background="new 0 0 250 40" xml:space="preserve">
<g>
	<path fill="#513B56" d="M9.355,35.772v-3.48c4.359-1.277,7.975-4.143,10.846-8.596c1.617-2.508,2.783-5.525,3.498-9.053H9.461
		v-3.41h14.52V5.819h3.41v5.414H41.84v3.41H27.672c0.176,1.664,0.75,3.563,1.723,5.695c1.711,3.82,3.943,6.803,6.697,8.947
		c1.852,1.43,3.82,2.432,5.906,3.006v3.463c-2.473-0.188-5.051-1.324-7.734-3.41c-2.074-1.617-3.984-3.691-5.73-6.223
		c-0.844-1.23-1.805-2.953-2.883-5.168c-0.75,1.617-1.33,2.795-1.74,3.533c-1.969,3.422-4.57,6.275-7.805,8.561
		C14.301,34.325,12.051,35.233,9.355,35.772z"/>
	<path fill="#525174" d="M45.496,27.054v-3.252l17.701,0.018l5.203-3.357c0.504-0.328,0.756-0.668,0.756-1.02
		c0-0.141-0.064-0.252-0.193-0.334c-0.164-0.117-0.598-0.176-1.301-0.176H47.799l0.018-3.305h21.305
		c1.488,0,2.631,0.287,3.428,0.861c0.832,0.598,1.248,1.383,1.248,2.355c0,1.195-0.686,2.244-2.057,3.146l-2.725,1.811h9.07v3.252
		l-10.723,0.018v3.146c0,1.477-0.422,2.695-1.266,3.656c-0.973,1.113-2.268,1.67-3.885,1.67h-6.504l-0.018-3.305l5.695,0.018
		c0.797,0,1.371-0.182,1.723-0.545c0.387-0.398,0.58-0.896,0.58-1.494v-3.164H45.496z M45.549,14.749l-0.018-1.916
		c-0.012-2.227,1.166-3.75,3.533-4.57l0.018-2.672h3.252v2.602h7.875V5.626l3.27-0.035v2.602h7.998V5.591h3.252l-0.018,2.725
		c1.523,0.527,2.531,1.354,3.023,2.479c0.293,0.645,0.434,1.459,0.422,2.443l-0.018,1.512h-3.234v-1.424
		c0-1.266-0.814-1.898-2.443-1.898H50.998c-1.418,0-2.133,0.633-2.145,1.898l-0.018,1.424H45.549z"/>
	<path fill="#348AA7" d="M81.496,17.28v-3.428c0.891-0.387,1.523-1.184,1.898-2.391c0.316-1.02,0.65-2.795,1.002-5.326l3.322-0.018
		c-0.188,1.207-0.375,2.367-0.563,3.48h8.965v-3.92h3.252v3.92h14.555v3.252H99.373v7.172h13.605v3.252H99.373v9.105h14.555v3.252
		H81.549V32.38h14.572v-9.105H82.533v-3.252h13.588v-7.172h-9.668c-0.609,1.582-1.4,2.701-2.373,3.357
		C83.459,16.63,82.598,16.987,81.496,17.28z"/>
	<path fill="#5DD39E" d="M171.689,9.282V6.03h7.225v3.252H171.689z M171.689,17.017v-3.252h2.514c1.406,0,2.344,0.158,2.813,0.475
		c0.457,0.316,0.791,0.656,1.002,1.02c0.27,0.469,0.404,1.148,0.404,2.039v13.5c0,0.68,0.076,1.102,0.229,1.266
		c0.176,0.188,0.563,0.281,1.16,0.281h1.688v3.217h-2.584c-1.172,0-1.963-0.152-2.373-0.457c-0.504-0.387-0.861-0.779-1.072-1.178
		c-0.199-0.387-0.299-0.914-0.299-1.582V18.634c0-0.656-0.088-1.084-0.264-1.283c-0.176-0.223-0.557-0.334-1.143-0.334H171.689z
		 M194.805,21.253v1.6h9.158v3.252h-9.158v9.563h-3.252v-9.563h-8.684v-3.252h8.684v-1.6h-5.186c-1.125,0-2.016-0.328-2.672-0.984
		c-0.609-0.609-0.914-1.846-0.914-3.709V9.282c0-1.066,0.316-1.904,0.949-2.514c0.668-0.645,1.658-0.967,2.971-0.967h12.674
		c1.477,0,2.543,0.328,3.199,0.984c0.633,0.621,0.949,1.424,0.949,2.408v7.436c0,1.57-0.158,2.607-0.475,3.111
		c-0.621,1.008-1.729,1.512-3.322,1.512H194.805z M182.887,35.667v-3.182c0.363-0.141,0.592-0.311,0.686-0.51
		c0.105-0.234,0.258-1.02,0.457-2.355l0.193-1.951h3.305l-0.246,2.109c-0.258,2.355-0.791,3.949-1.6,4.781
		C185.014,35.263,184.082,35.632,182.887,35.667z M186.104,11.989h5.449V9.106h-4.025c-0.563,0-0.943,0.1-1.143,0.299
		c-0.188,0.199-0.281,0.504-0.281,0.914V11.989z M191.553,17.948v-2.707h-5.449v1.547c0,0.445,0.094,0.75,0.281,0.914
		s0.539,0.246,1.055,0.246H191.553z M194.805,11.989h5.414v-1.125c0-0.703-0.082-1.172-0.246-1.406
		c-0.152-0.234-0.463-0.352-0.932-0.352h-4.236V11.989z M194.805,17.948h4.008c0.586,0,0.973-0.105,1.16-0.316
		c0.164-0.164,0.246-0.498,0.246-1.002v-1.389h-5.414V17.948z M199.27,27.669h3.252l0.246,2.215
		c0.176,1.184,0.299,1.863,0.369,2.039c0.105,0.246,0.357,0.434,0.756,0.563v3.182c-1.23-0.035-2.197-0.428-2.9-1.178
		c-0.527-0.574-0.914-1.383-1.16-2.426c-0.117-0.469-0.234-1.271-0.352-2.408L199.27,27.669z"/>
	<path fill="#BCE784" d="M207.514,14.257v-2.443c0-2.016,1.049-3.1,3.146-3.252v-2.9h3.252v2.9h7.945v-2.9h3.234v2.9h8.613v-2.9
		h3.305v2.9c2.004,0.27,3.006,1.354,3.006,3.252v2.443h-3.287v-1.582c0-0.574-0.363-0.861-1.09-0.861h-23.643
		c-0.82,0-1.23,0.287-1.23,0.861v1.582H207.514z M207.514,35.544v-3.252h14.625v-2.988h-14.063v-3.305h14.063v-2.215H211.82
		c-0.926,0-1.682-0.275-2.268-0.826c-0.609-0.586-0.914-1.301-0.914-2.145v-2.865c0-1.031,0.281-1.822,0.844-2.373
		c0.586-0.586,1.365-0.879,2.338-0.879h23.432c2.484,0,3.727,1.084,3.727,3.252v2.865c0,0.797-0.305,1.494-0.914,2.092
		c-0.586,0.586-1.295,0.879-2.127,0.879h-10.547v2.215h14.115v3.305h-14.115v2.988h14.625v3.252H207.514z M212.945,20.479h21.832
		c0.633,0,0.949-0.41,0.949-1.23c0-0.867-0.363-1.301-1.09-1.301h-21.568c-0.809,0-1.213,0.428-1.213,1.283
		C211.855,20.063,212.219,20.479,212.945,20.479z"/>
</g>
<path fill="#526C78" d="M156.415,29.744c0,0.906-0.484,1.641-1.081,1.641h-12.771h-12.525c-0.598,0-1.082-0.734-1.082-1.641v-17.92
	c0-0.906,0.484-1.64,1.082-1.64h25.297c0.597,0,1.081,0.734,1.081,1.64V29.744z"/>
<ellipse fill="#526C78" cx="142.68" cy="29.873" rx="13.735" ry="6.412"/>
<path fill="#51646D" d="M128.945,29.873"/>
<path fill="#51646D" d="M135.928,29.285c0,0.906-0.124,1.641-0.274,1.641h-3.242h-3.181c-0.152,0-0.275-0.734-0.275-1.641v-17.92
	c0-0.906,0.123-1.64,0.275-1.64h6.423c0.15,0,0.274,0.734,0.274,1.64V29.285z"/>
<polygon fill="#51646D" points="158.065,18.33 142.68,27.025 127.294,18.324 142.687,2.552 "/>
<polygon fill="#526C78" points="170.585,12.944 142.687,24.945 114.787,12.944 142.687,0.944 "/>
<path fill="#51646D" d="M135.928,29.873v5.584c0,0-3.462-1.467-4.606-1.979c-0.733-0.328-2.347-2.506-2.347-3.605"/>
<path fill="#FFFFFF" d="M128.818,37.978c0,0.426-0.972,0.461-1.562,0.461l0,0c-0.59,0-1.486-0.074-1.486-0.498l0.419-3.481
	c0-0.424,0.478-0.768,1.067-0.768l0,0c0.59,0,1.068,0.344,1.068,0.768L128.818,37.978z"/>
<path fill="#E2F0FB" d="M128.124,37.104c0,0.317-0.683,0.346-1.096,0.346l0,0c-0.415,0-1.044-0.057-1.044-0.374l0.294-2.602
	c0-0.317,0.335-0.573,0.75-0.573l0,0c0.413,0,0.749,0.256,0.749,0.573L128.124,37.104z"/>
<g>
	<g>
		<path fill="#E4F9F7" d="M142.546,12.436c-3.687,1.458-9.632,3.192-11.963,6.586c-2.702,3.933-3.199,9.73-3.816,14.354
			c-0.09,0.673,0.966,0.664,1.055,0c0.57-4.272,1.255-8.84,3.044-12.789c1.681-3.71,8.439-5.741,11.962-7.134
			C143.452,13.206,143.18,12.185,142.546,12.436L142.546,12.436z"/>
	</g>
</g>
<ellipse fill="none" stroke="#E4F9F7" stroke-width="0.211" stroke-miterlimit="10" cx="127.295" cy="33.691" rx="1.398" ry="1.044"/>
</svg>
